<svg xmlns="http://www.w3.org/2000/svg" width="18" height="18" viewBox="0 0 18 18">
  <defs>
    <style>
      .cls-1 {
        fill: #fff;
        fill-rule: evenodd;
      }
    </style>
  </defs>
  <path class="cls-1" d="M1381,1600.59h3.64a4.2,4.2,0,0,1,1.71.35,3.1,3.1,0,0,1,1.71,1.7,8.783,8.783,0,0,1,.34,1.71v7.29a4.377,4.377,0,0,1-.34,1.71,3.078,3.078,0,0,1-1.71,1.71,8.611,8.611,0,0,1-1.71.34h-7.29a4.472,4.472,0,0,1-1.71-.34,3.1,3.1,0,0,1-1.7-1.71,8.236,8.236,0,0,1-.35-1.71v-7.29a4.241,4.241,0,0,1,.35-1.71,4.358,4.358,0,0,1,.57-1.02,3.435,3.435,0,0,1,1.13-.57,8.783,8.783,0,0,1,1.71-.34,23.045,23.045,0,0,1,3.65-.12m0-1.59h-3.76a5.555,5.555,0,0,0-2.17.46,4.459,4.459,0,0,0-2.62,2.62,8.989,8.989,0,0,0-.45,2.16v7.52a5.7,5.7,0,0,0,.45,2.16,4.459,4.459,0,0,0,2.62,2.62,9.142,9.142,0,0,0,2.17.46h7.52a5.5,5.5,0,0,0,2.16-.46,4.789,4.789,0,0,0,1.6-1.02,4.951,4.951,0,0,0,1.02-1.6,9.046,9.046,0,0,0,.46-2.16v-7.52a5.46,5.46,0,0,0-.46-2.16,4.951,4.951,0,0,0-1.02-1.6,4.789,4.789,0,0,0-1.6-1.02,8.581,8.581,0,0,0-2.16-.46H1381Zm0,4.44a4.67,4.67,0,1,0,4.67,4.67A4.774,4.774,0,0,0,1381,1603.44Zm0,7.63a3.016,3.016,0,0,1,0-6.03,3.012,3.012,0,0,1,2.96,2.96A3.118,3.118,0,0,1,1381,1611.07Zm4.78-8.99a1.135,1.135,0,1,1-1.14,1.13A1.137,1.137,0,0,1,1385.78,1602.08Z" transform="translate(-1372 -1599)"/>
</svg>
