<svg xmlns="http://www.w3.org/2000/svg" width="18" height="18"><path d="M9 1.59h3.64a4.2 4.2 0 011.71.35 3.1 3.1 0 011.71 1.7 8.783 8.783 0 01.34 1.71v7.29a4.377 4.377 0 01-.34 1.71 3.078 3.078 0 01-1.71 1.71 8.611 8.611 0 01-1.71.34H5.35a4.472 4.472 0 01-1.71-.34 3.1 3.1 0 01-1.7-1.71 8.236 8.236 0 01-.35-1.71V5.35a4.241 4.241 0 01.35-1.71 4.358 4.358 0 01.57-1.02 3.435 3.435 0 011.13-.57 8.783 8.783 0 011.71-.34A23.045 23.045 0 019 1.59M9 0H5.24a5.555 5.555 0 00-2.17.46A4.459 4.459 0 00.45 3.08 8.989 8.989 0 000 5.24v7.52a5.7 5.7 0 00.45 2.16 4.459 4.459 0 002.62 2.62 9.142 9.142 0 002.17.46h7.52a5.5 5.5 0 002.16-.46 4.789 4.789 0 001.6-1.02 4.951 4.951 0 001.02-1.6 9.046 9.046 0 00.46-2.16V5.24a5.46 5.46 0 00-.46-2.16 4.951 4.951 0 00-1.02-1.6 4.789 4.789 0 00-1.6-1.02A8.581 8.581 0 0012.76 0H9zm0 4.44a4.67 4.67 0 104.67 4.67A4.774 4.774 0 009 4.44zm0 7.63a3.016 3.016 0 010-6.03A3.012 3.012 0 0111.96 9 3.118 3.118 0 019 12.07zm4.78-8.99a1.135 1.135 0 11-1.14 1.13 1.137 1.137 0 011.14-1.13z" fill="#fff" fill-rule="evenodd"/></svg>