<svg xmlns="http://www.w3.org/2000/svg" width="12.53" height="15.72" viewBox="0 0 12.53 15.72">
  <defs>
    <style>
      .cls-1 {
        fill: #fff;
        fill-rule: evenodd;
      }
    </style>
  </defs>
  <path id="Forma_1" data-name="Forma 1" class="cls-1" d="M1427.33,1608.38c0.78-1.34-.25-1.63-0.41-2.61-0.65-3.98,4.7-6.69,7.5-3.91,1.94,1.92.66,7.84-2.46,7.23-3-.59,1.46-5.3-0.93-6.23-1.94-.75-2.97,2.3-2.05,3.82-0.54,2.61-1.7,5.06-1.23,8.33,1.52-1.08,2.04-3.16,2.46-5.32a4.354,4.354,0,0,0,2.16,1c3.61,0.28,5.63-3.52,5.13-7.02-0.44-3.11-3.6-4.69-6.98-4.32a5.965,5.965,0,0,0-5.45,5.42C1425.01,1606.61,1425.54,1608,1427.33,1608.38Z" transform="translate(-1425.06 -1599.28)"/>
</svg>
