<svg xmlns="http://www.w3.org/2000/svg" width="16" height="13" viewBox="0 0 16 13">
  <defs>
    <style>
      .cls-1 {
        fill: #fff;
        fill-rule: evenodd;
      }
    </style>
  </defs>
  <path id="Forma_1" data-name="Forma 1" class="cls-1" d="M1338.56,1601.24a6.616,6.616,0,0,1-2.09.8,3.283,3.283,0,0,0-5.68,2.24,3.081,3.081,0,0,0,.09.75,9.323,9.323,0,0,1-6.77-3.43,3.293,3.293,0,0,0,1.02,4.38,3.286,3.286,0,0,1-1.49-.41v0.04a3.293,3.293,0,0,0,2.64,3.22,3.576,3.576,0,0,1-.87.11,3.179,3.179,0,0,1-.62-0.06,3.3,3.3,0,0,0,3.07,2.29,6.582,6.582,0,0,1-4.08,1.4c-0.26,0-.52-0.02-0.78-0.04a9.34,9.34,0,0,0,14.37-7.87l-0.01-.43a6.589,6.589,0,0,0,1.64-1.69,6.308,6.308,0,0,1-1.88.51A3.329,3.329,0,0,0,1338.56,1601.24Z" transform="translate(-1323 -1601)"/>
</svg>
