<svg xmlns="http://www.w3.org/2000/svg" width="16" height="13"><path id="Forma_1" data-name="Forma 1" d="M1338.56 1601.24a6.616 6.616 0 01-2.09.8 3.283 3.283 0 00-5.68 2.24 3.081 3.081 0 00.09.75 9.323 9.323 0 01-6.77-3.43 3.293 3.293 0 001.02 4.38 3.286 3.286 0 01-1.49-.41v.04a3.293 3.293 0 002.64 3.22 3.576 3.576 0 01-.87.11 3.179 3.179 0 01-.62-.06 3.3 3.3 0 003.07 2.29 6.582 6.582 0 01-4.08 1.4c-.26 0-.52-.02-.78-.04a9.34 9.34 0 0014.37-7.87l-.01-.43a6.589 6.589 0 001.64-1.69 6.308 6.308 0 01-1.88.51 3.329 3.329 0 001.44-1.81z" transform="translate(-1323 -1601)" fill="#fff" fill-rule="evenodd"/></svg>