<svg xmlns="http://www.w3.org/2000/svg" width="12.53" height="15.72"><path id="Forma_1" data-name="Forma 1" d="M1427.33 1608.38c.78-1.34-.25-1.63-.41-2.61-.65-3.98 4.7-6.69 7.5-3.91 1.94 1.92.66 7.84-2.46 7.23-3-.59 1.46-5.3-.93-6.23-1.94-.75-2.97 2.3-2.05 3.82-.54 2.61-1.7 5.06-1.23 8.33 1.52-1.08 2.04-3.16 2.46-5.32a4.354 4.354 0 002.16 1c3.61.28 5.63-3.52 5.13-7.02-.44-3.11-3.6-4.69-6.98-4.32a5.965 5.965 0 00-5.45 5.42c-.06 1.84.47 3.23 2.26 3.61z" transform="translate(-1425.06 -1599.28)" fill="#fff" fill-rule="evenodd"/></svg>