<?xml version="1.0" encoding="UTF-8"?>
<svg xmlns="http://www.w3.org/2000/svg" xmlns:xlink="http://www.w3.org/1999/xlink" width="17px" height="25px" viewBox="0 0 17 24" version="1.1">
<g id="surface1">
<path style=" stroke:none;fill-rule:nonzero;fill:#0049b0;fill-opacity:1;" d="M 11.722656 12 L 16.554688 7.308594 C 17.148438 6.734375 17.148438 5.800781 16.554688 5.222656 L 15.480469 4.183594 C 14.886719 3.605469 13.925781 3.605469 13.332031 4.183594 L 8.5 8.871094 L 3.667969 4.183594 C 3.074219 3.605469 2.113281 3.605469 1.519531 4.183594 L 0.445312 5.222656 C -0.148438 5.800781 -0.148438 6.734375 0.445312 7.308594 L 5.277344 12 L 0.445312 16.691406 C -0.148438 17.265625 -0.148438 18.199219 0.445312 18.777344 L 1.519531 19.816406 C 2.113281 20.394531 3.074219 20.394531 3.667969 19.816406 L 8.5 15.128906 L 13.332031 19.816406 C 13.925781 20.394531 14.886719 20.394531 15.480469 19.816406 L 16.554688 18.777344 C 17.148438 18.199219 17.148438 17.265625 16.554688 16.691406 Z M 11.722656 12 "/>
</g>
</svg>
